<?xml version="1.0" encoding="utf-8"?>
<!-- Generator: Adobe Illustrator 19.0.0, SVG Export Plug-In . SVG Version: 6.00 Build 0)  -->
<svg version="1.1" id="svg2" xmlns:svg="http://www.w3.org/2000/svg"
	 xmlns="http://www.w3.org/2000/svg" xmlns:xlink="http://www.w3.org/1999/xlink" x="0px" y="0px" viewBox="25 128.9 645 585"
	 style="enable-background:new 25 128.9 645 585;" xml:space="preserve">
<style type="text/css">
	.st0{fill:#FFD700;}
</style>
<g id="layer1">
	<path id="path2417" class="st0" d="M322.3,679.8c-13.8-15.4-48.2-45.5-76.4-66.9c-83.7-63.2-95.1-72.4-129.1-103.7
		C54,451.5,27.4,393.5,27.5,314.8c0-38.4,2.7-53.2,13.4-75.8c18.2-38.4,45.1-66.9,79.4-84.4c24.3-12.4,36.3-17.8,76.9-18.1
		c42.5-0.2,51.4,4.7,76.4,18.5c30.4,16.7,61.7,52.4,68.2,77.8l4,15.7l9.9-21.6c55.7-122,233.6-120.1,295.5,3
		c19.6,39.1,21.8,122.5,4.4,169.5c-22.7,61.3-65.4,108.1-164,179.7c-64.7,47-137.9,118-143,128C342.8,718.8,348.4,709,322.3,679.8z"
		/>
	<g id="g2221" transform="translate(129.28571,-64.285714)">
	</g>
</g>
</svg>
